<svg xmlns="http://www.w3.org/2000/svg" viewBox="0 0 900 480" font-family="'Segoe UI','Helvetica Neue',Arial,sans-serif">
  <defs>
    <linearGradient id="bg2" x1="0" y1="0" x2="0" y2="1"><stop offset="0%" stop-color="#0f0a0a"/><stop offset="100%" stop-color="#1a1010"/></linearGradient>
  </defs>
  <rect width="900" height="480" fill="url(#bg2)" rx="12"/>
  <text x="450" y="35" fill="#e8e0e0" font-size="16" font-weight="700" text-anchor="middle">The UpsideDine Ecosystem</text>
  <text x="170" y="70" fill="#888" font-size="10" text-anchor="middle" letter-spacing="2">MANAGEMENT CHAIN</text>
  <text x="450" y="70" fill="#888" font-size="10" text-anchor="middle" letter-spacing="2">ENTITIES</text>
  <text x="710" y="70" fill="#888" font-size="10" text-anchor="middle" letter-spacing="2">STUDENT INTERACTIONS</text>
  <rect x="70" y="90" width="200" height="60" rx="6" fill="#2a1515" stroke="#e74c3c" stroke-width="1.2"/>
  <text x="85" y="108" fill="#e74c3c" font-size="8.5" font-weight="600" opacity="0.7">TIER 1</text>
  <text x="170" y="122" fill="#e8e0e0" font-size="13" font-weight="600" text-anchor="middle">Admin</text>
  <text x="170" y="140" fill="#999" font-size="9" text-anchor="middle">Creates managers, canteens, messes</text>
  <line x1="170" y1="150" x2="170" y2="170" stroke="#555" stroke-width="1.2"/>
  <line x1="105" y1="170" x2="235" y2="170" stroke="#555" stroke-width="1.2"/>
  <line x1="105" y1="170" x2="105" y2="185" stroke="#555" stroke-width="1.2"/>
  <line x1="235" y1="170" x2="235" y2="185" stroke="#555" stroke-width="1.2"/>
  <rect x="30" y="185" width="155" height="70" rx="6" fill="#1f2a1a" stroke="#34d399" stroke-width="1.2"/>
  <text x="42" y="203" fill="#34d399" font-size="8" font-weight="600" opacity="0.7">TIER 2</text>
  <text x="107" y="218" fill="#e8e0e0" font-size="11.5" font-weight="600" text-anchor="middle">Mess Manager</text>
  <text x="107" y="234" fill="#999" font-size="8" text-anchor="middle">Menu, Bookings, Crowd</text>
  <text x="107" y="246" fill="#999" font-size="8" text-anchor="middle">Create workers</text>
  <rect x="195" y="185" width="155" height="70" rx="6" fill="#1f2a1a" stroke="#34d399" stroke-width="1.2"/>
  <text x="207" y="203" fill="#34d399" font-size="8" font-weight="600" opacity="0.7">TIER 2</text>
  <text x="272" y="218" fill="#e8e0e0" font-size="11.5" font-weight="600" text-anchor="middle">Canteen Manager</text>
  <text x="272" y="234" fill="#999" font-size="8" text-anchor="middle">Menu, Orders, Revenue</text>
  <text x="272" y="246" fill="#999" font-size="8" text-anchor="middle">Create delivery coordies</text>
  <line x1="107" y1="255" x2="107" y2="280" stroke="#555" stroke-width="1.2"/>
  <line x1="272" y1="255" x2="272" y2="280" stroke="#555" stroke-width="1.2"/>
  <rect x="30" y="280" width="155" height="55" rx="6" fill="#1a2332" stroke="#4a9eff" stroke-width="1.2"/>
  <text x="42" y="298" fill="#4a9eff" font-size="8" font-weight="600" opacity="0.7">TIER 3</text>
  <text x="107" y="313" fill="#e8e0e0" font-size="11.5" font-weight="600" text-anchor="middle">Mess Worker</text>
  <text x="107" y="327" fill="#999" font-size="8.5" text-anchor="middle">QR scan and verify</text>
  <rect x="195" y="280" width="155" height="55" rx="6" fill="#1a2332" stroke="#4a9eff" stroke-width="1.2"/>
  <text x="207" y="298" fill="#4a9eff" font-size="8" font-weight="600" opacity="0.7">TIER 3</text>
  <text x="272" y="313" fill="#e8e0e0" font-size="11.5" font-weight="600" text-anchor="middle">Delivery Coord.</text>
  <text x="272" y="327" fill="#999" font-size="8.5" text-anchor="middle">Pickup and deliver</text>
  <rect x="385" y="120" width="130" height="55" rx="6" fill="#1f1a2e" stroke="#a78bfa" stroke-width="1.2"/>
  <text x="450" y="147" fill="#e8e0e0" font-size="12" font-weight="600" text-anchor="middle">Messes</text>
  <text x="450" y="164" fill="#999" font-size="9" text-anchor="middle">Hall dining facilities</text>
  <rect x="385" y="200" width="130" height="55" rx="6" fill="#1f1a2e" stroke="#a78bfa" stroke-width="1.2"/>
  <text x="450" y="227" fill="#e8e0e0" font-size="12" font-weight="600" text-anchor="middle">Canteens</text>
  <text x="450" y="244" fill="#999" font-size="9" text-anchor="middle">Food outlets and shops</text>
  <rect x="600" y="90" width="220" height="55" rx="6" fill="#2a2018" stroke="#f59e0b" stroke-width="1.2"/>
  <text x="710" y="115" fill="#e8e0e0" font-size="13" font-weight="600" text-anchor="middle">Student</text>
  <text x="710" y="133" fill="#999" font-size="9" text-anchor="middle">Self-registers via OTP</text>
  <line x1="710" y1="145" x2="710" y2="162" stroke="#f59e0b" stroke-width="1" opacity="0.5"/>
  <rect x="610" y="162" width="200" height="40" rx="5" fill="#1a1a1a" stroke="#444" stroke-width="0.8"/>
  <text x="625" y="180" fill="#f59e0b" font-size="10" font-weight="600">Books Extras</text>
  <text x="625" y="194" fill="#888" font-size="8.5">shows QR to Mess Worker</text>
  <line x1="710" y1="202" x2="710" y2="215" stroke="#f59e0b" stroke-width="1" opacity="0.5"/>
  <rect x="610" y="215" width="200" height="40" rx="5" fill="#1a1a1a" stroke="#444" stroke-width="0.8"/>
  <text x="625" y="233" fill="#f59e0b" font-size="10" font-weight="600">Places Order</text>
  <text x="625" y="247" fill="#888" font-size="8.5">gives OTP to Delivery Coordies</text>
  <line x1="710" y1="255" x2="710" y2="268" stroke="#f59e0b" stroke-width="1" opacity="0.5"/>
  <rect x="610" y="268" width="200" height="40" rx="5" fill="#1a1a1a" stroke="#444" stroke-width="0.8"/>
  <text x="625" y="286" fill="#f59e0b" font-size="10" font-weight="600">Pre-books Order</text>
  <text x="625" y="300" fill="#888" font-size="8.5">pickup at Canteen</text>
  <line x1="710" y1="308" x2="710" y2="321" stroke="#f59e0b" stroke-width="1" opacity="0.5"/>
  <rect x="610" y="321" width="200" height="40" rx="5" fill="#1a1a1a" stroke="#444" stroke-width="0.8"/>
  <text x="625" y="339" fill="#f59e0b" font-size="10" font-weight="600">Views Crowd</text>
  <text x="625" y="353" fill="#888" font-size="8.5">live feed from Mess</text>
  <rect x="30" y="400" width="840" height="65" rx="8" fill="#111" stroke="#333" stroke-width="0.8"/>
  <text x="50" y="425" fill="#e74c3c" font-size="9">Admin:</text><text x="95" y="425" fill="#999" font-size="9">Full system control</text>
  <text x="250" y="425" fill="#34d399" font-size="9">Managers:</text><text x="320" y="425" fill="#999" font-size="9">Manage menus, staff, orders</text>
  <text x="50" y="448" fill="#4a9eff" font-size="9">Workers:</text><text x="110" y="448" fill="#999" font-size="9">Scan QR / handle deliveries</text>
  <text x="310" y="448" fill="#f59e0b" font-size="9">Students:</text><text x="375" y="448" fill="#999" font-size="9">Book extras, order food, monitor crowd</text>
</svg>
